<?xml version="1.0" encoding="UTF-8" standalone="no"?>
<!-- Generator: Adobe Illustrator 19.0.0, SVG Export Plug-In . SVG Version: 6.00 Build 0)  -->

<svg
   version="1.1"
   id="Layer_1"
   x="0px"
   y="0px"
   viewBox="0 0 512 512"
   style="enable-background:new 0 0 512 512;"
   xml:space="preserve"
   sodipodi:docname="paint-palette.svg"
   inkscape:version="1.3 (0e150ed, 2023-07-21)"
   xmlns:inkscape="http://www.inkscape.org/namespaces/inkscape"
   xmlns:sodipodi="http://sodipodi.sourceforge.net/DTD/sodipodi-0.dtd"
   xmlns="http://www.w3.org/2000/svg"
   xmlns:svg="http://www.w3.org/2000/svg"><defs
   id="defs27" /><sodipodi:namedview
   id="namedview27"
   pagecolor="#505050"
   bordercolor="#eeeeee"
   borderopacity="1"
   inkscape:showpageshadow="0"
   inkscape:pageopacity="0"
   inkscape:pagecheckerboard="0"
   inkscape:deskcolor="#505050"
   inkscape:zoom="0.4609375"
   inkscape:cx="256"
   inkscape:cy="256"
   inkscape:window-width="1440"
   inkscape:window-height="847"
   inkscape:window-x="0"
   inkscape:window-y="25"
   inkscape:window-maximized="1"
   inkscape:current-layer="Layer_1" />&#10;<g
   id="Others">&#10;</g>&#10;<g
   id="Design">&#10;	<g
   id="paint">&#10;		<g
   id="g2">&#10;			&#10;				<radialGradient
   id="SVGID_1_"
   cx="256"
   cy="258"
   r="256"
   gradientTransform="matrix(1 0 0 -1 0 514)"
   gradientUnits="userSpaceOnUse">&#10;				<stop
   offset="0"
   style="stop-color:#8b3743;stop-opacity:1;"
   id="stop1" />&#10;				<stop
   offset="1"
   style="stop-color:#aa3f3f;stop-opacity:1;"
   id="stop2" />&#10;			</radialGradient>&#10;			<circle
   style="display:inline;fill:url(#SVGID_1_)"
   cx="256"
   cy="256"
   r="256"
   id="circle2" />&#10;		</g>&#10;		<g
   id="g12">&#10;			<path
   style="display:inline;fill:#94a5a6"
   d="m 337.543,228.916 c -48.986,-4.83 -51.055,-14.489 -45.535,-46.226 5.52,-31.737 -28.979,-60.715 -91.762,-42.086 -62.785,18.628 -115.91,72.443 -95.213,175.935 0,0 28.287,101.421 125.57,116.6 97.281,15.179 157.994,-19.318 180.072,-89.002 22.079,-69.685 -24.146,-110.392 -73.132,-115.221 z M 204.039,214.427 c -11.621,0 -21.043,-9.421 -21.043,-21.043 0,-5.381 2.023,-10.289 5.346,-14.01 -0.992,1.566 -1.797,3.263 -2.352,5.073 3.783,-3.648 8.928,-5.896 14.6,-5.896 11.623,0 21.043,9.421 21.043,21.043 0,2.15 -0.324,4.224 -0.922,6.177 0.406,-0.393 0.793,-0.805 1.168,-1.229 -3.721,5.936 -10.317,9.885 -17.84,9.885 z"
   id="path2" />&#10;			<path
   style="display:inline;fill:#ecf0f1"
   d="m 332.713,232.365 c -48.984,-4.83 -51.055,-14.489 -45.535,-46.226 5.52,-31.737 -28.979,-60.715 -91.762,-42.086 -62.785,18.628 -115.91,72.443 -95.211,175.935 0,0 28.287,101.421 125.568,116.6 97.281,15.179 157.996,-19.318 180.074,-89.002 22.079,-69.685 -24.148,-110.391 -73.134,-115.221 z M 204.039,214.427 c -11.621,0 -21.043,-9.421 -21.043,-21.043 0,-11.622 9.422,-21.043 21.043,-21.043 11.623,0 21.045,9.421 21.045,21.043 0,11.622 -9.422,21.043 -21.045,21.043 z"
   id="path3" />&#10;			<circle
   style="fill:#C6362B;"
   cx="365.141"
   cy="300.669"
   r="31.047"
   id="circle3" />&#10;			<circle
   style="fill:#EE483C;"
   cx="359.621"
   cy="297.22"
   r="15.869"
   id="circle4" />&#10;			<g
   id="g7">&#10;				<path
   style="fill:#32495D;"
   d="M406.529,67.561l-87.41,155.065l-9.014-5.083C310.105,217.543,373.734,49.867,406.529,67.561z"
   id="path4" />&#10;				<path
   style="fill:#2A3E4F;"
   d="M406.529,67.561l-87.41,155.065l9.246,5.211C328.365,227.837,438.646,86.457,406.529,67.561z"
   id="path5" />&#10;				&#10;					<rect
   x="302.336"
   y="220.914"
   transform="matrix(-0.8711,-0.491,0.491,-0.8711,470.1683,591.4255)"
   style="display:inline;fill:#f4c342"
   width="20.698"
   height="26.216999"
   id="rect5" />&#10;				&#10;					<rect
   x="312.018"
   y="223.455"
   transform="matrix(-0.8711 -0.491 0.491 -0.8711 477.3548 598.3921)"
   style="fill:#F89B36;"
   width="10.348"
   height="26.216"
   id="rect6" />&#10;				<path
   style="fill:#94A5A6;"
   d="M297.23,240.382c0,0-39.801-1.051-40.25,39.087c-0.449,40.139-26.186,29.592-26.186,29.592      s36.223,35.181,76.146-3.013c34.381-32.892,8.32-55.503,8.32-55.503L297.23,240.382z"
   id="path6" />&#10;				<path
   style="fill:#7E8C8D;"
   d="M315.262,250.546l-18.031-10.164c0,0-2.523-0.066-6.305,0.475      c2.32,2.169,24.102,24.118-8.518,55.323c-16.793,16.067-32.934,19.147-45.996,17.327c11.672,8.066,40.02,21.731,70.529-7.458      C341.322,273.157,315.262,250.546,315.262,250.546z"
   id="path7" />&#10;			</g>&#10;			<circle
   style="fill:#F89B36;"
   cx="323.055"
   cy="369.663"
   r="31.047"
   id="circle7" />&#10;			<circle
   style="fill:#F4C342;"
   cx="317.535"
   cy="366.213"
   r="15.869"
   id="circle8" />&#10;			<circle
   style="fill:#1380B6;"
   cx="251.99"
   cy="394.501"
   r="31.047"
   id="circle9" />&#10;			<circle
   style="fill:#1C99D8;"
   cx="246.472"
   cy="391.051"
   r="15.868"
   id="circle10" />&#10;			<circle
   style="fill:#00AF67;"
   cx="177.478"
   cy="363.454"
   r="31.048"
   id="circle11" />&#10;			<circle
   style="fill:#00CA77;"
   cx="171.958"
   cy="360.004"
   r="15.868"
   id="circle12" />&#10;		</g>&#10;	</g>&#10;</g>&#10;<g
   id="SEO_x2F__Web">&#10;</g>&#10;<g
   id="Finance__x2F__Money">&#10;</g>&#10;<g
   id="E-Commerce__x2F__Shopping">&#10;</g>&#10;<g
   id="Strategy">&#10;</g>&#10;<g
   id="g13">&#10;</g>&#10;<g
   id="g14">&#10;</g>&#10;<g
   id="g15">&#10;</g>&#10;<g
   id="g16">&#10;</g>&#10;<g
   id="g17">&#10;</g>&#10;<g
   id="g18">&#10;</g>&#10;<g
   id="g19">&#10;</g>&#10;<g
   id="g20">&#10;</g>&#10;<g
   id="g21">&#10;</g>&#10;<g
   id="g22">&#10;</g>&#10;<g
   id="g23">&#10;</g>&#10;<g
   id="g24"
   style="display:inline">&#10;</g>&#10;<g
   id="g25">&#10;</g>&#10;<g
   id="g26">&#10;</g>&#10;<g
   id="g27">&#10;</g>&#10;</svg>
