<?xml version="1.0" encoding="UTF-8" standalone="no"?>
<!-- Created with Inkscape (http://www.inkscape.org/) -->

<svg
   version="1.1"
   id="svg1"
   width="666.66663"
   height="1199.9999"
   viewBox="0 0 666.66662 1199.9999"
   sodipodi:docname="about-img.svg"
   inkscape:version="1.3 (0e150ed6c4, 2023-07-21)"
   inkscape:export-filename="..\..\..\..\A&amp;H\business-card-design\Text.svg"
   inkscape:export-xdpi="96"
   inkscape:export-ydpi="96"
   xmlns:inkscape="http://www.inkscape.org/namespaces/inkscape"
   xmlns:sodipodi="http://sodipodi.sourceforge.net/DTD/sodipodi-0.dtd"
   xmlns="http://www.w3.org/2000/svg"
   xmlns:svg="http://www.w3.org/2000/svg">
  <defs
     id="defs1">
    <clipPath
       clipPathUnits="userSpaceOnUse"
       id="clipPath116">
      <path
         d="m 14866.3,14592.4 h -3890 c -306.5,0 -555,-248.4 -555,-555 v -1604.6 c 178.9,-67.4 390.3,-65.5 631.4,72.2 840.1,480.1 1472.9,1088.9 2311.6,-115.6 786.7,-1129.8 729.9,1674.4 2057,1408.8 v 239.2 c 0,306.6 -248.5,555 -555,555 z"
         transform="translate(0,2.5000001e-4)"
         id="path116" />
    </clipPath>
  </defs>
  <sodipodi:namedview
     id="namedview1"
     pagecolor="#505050"
     bordercolor="#ffffff"
     borderopacity="1"
     inkscape:showpageshadow="0"
     inkscape:pageopacity="0"
     inkscape:pagecheckerboard="1"
     inkscape:deskcolor="#505050"
     inkscape:zoom="0.43593131"
     inkscape:cx="700.79848"
     inkscape:cy="754.70606"
     inkscape:window-width="1920"
     inkscape:window-height="1018"
     inkscape:window-x="-8"
     inkscape:window-y="-8"
     inkscape:window-maximized="1"
     inkscape:current-layer="g1" />
  <g
     id="g1"
     inkscape:groupmode="layer"
     inkscape:label="1"
     transform="translate(-889.23685,-518.35961)">
    <g
       id="group-R5"
       transform="translate(-500.26978,-202.65382)"
       style="display:inline">
      <path
         id="path96"
         d="m 10421.3,5592.4 v 8445 c 0,306.6 248.5,555 555,555 h 3890 c 306.5,0 555,-248.4 555,-555 v -8445 h -5000"
         style="fill:#ffffff;fill-opacity:1;fill-rule:nonzero;stroke:none"
         transform="matrix(0.13333333,0,0,-0.13333333,0,2666.6667)" />
      <path
         id="path112"
         d="m 10421.3,12119.9 c 0,0 573.1,-533.5 1210.1,0 637,533.4 1227,523.4 1627,183.4 400,-340 490,-539.4 1030,170.3 540,709.7 1132.9,719.7 1132.9,719.7 v 844.1 h -5000 v -1917.5"
         style="fill:#ebebb6;fill-opacity:0.573913;fill-rule:nonzero;stroke:none"
         transform="matrix(0.13333333,0,0,-0.13333333,0,2666.6667)" />
      <path
         id="path113"
         d="m 14866.3,14592.4 h -3890 c -306.5,0 -555,-248.4 -555,-555 v -1604.6 c 178.9,-67.4 390.3,-65.5 631.4,72.2 840.1,480.1 1472.9,1088.9 2311.6,-115.6 786.7,-1129.8 729.9,1674.4 2057,1408.8 v 239.2 c 0,306.6 -248.5,555 -555,555"
         style="fill:#ce2014;fill-opacity:1;fill-rule:nonzero;stroke:none"
         transform="matrix(0.13333333,0,0,-0.13333333,0,2666.6667)"
         clip-path="url(#clipPath116)" />
    </g>
    <text
       xml:space="preserve"
       style="font-style:normal;font-variant:normal;font-weight:normal;font-stretch:normal;font-size:177.333px;line-height:0;font-family:Chokokutai;-inkscape-font-specification:Chokokutai;letter-spacing:-1px;fill:#ce2014"
       x="1086.0708"
       y="1193.568"
       id="text1"><tspan
         sodipodi:role="line"
         id="tspan1"
         x="1086.0708"
         y="1193.568"
         style="font-size:177.333px">AH</tspan></text>
    <text
       xml:space="preserve"
       style="font-style:normal;font-variant:normal;font-weight:normal;font-stretch:normal;font-size:68.6766px;line-height:0;font-family:Serif;-inkscape-font-specification:Serif;letter-spacing:-0.953842px;fill:#ce2014;stroke-width:0.953842"
       x="969.32843"
       y="1339.2655"
       id="text2"
       transform="scale(1.0483922,0.95384152)"><tspan
         sodipodi:role="line"
         id="tspan2"
         x="969.32843"
         y="1339.2655"
         style="font-style:normal;font-variant:normal;font-weight:500;font-stretch:normal;font-size:68.6766px;font-family:'Fira Code';-inkscape-font-specification:'Fira Code Medium';stroke-width:0.953842">ğ–¶ğ–¾ğ–» ğ–²ğ—ˆğ—…ğ—ğ—ğ—‚ğ—ˆğ—‡ğ—Œ</tspan></text>
    <text
       xml:space="preserve"
       style="font-style:normal;font-variant:normal;font-weight:500;font-stretch:normal;font-size:33.3333px;line-height:0;font-family:'Fira Code';-inkscape-font-specification:'Fira Code Medium';letter-spacing:-1px;fill:#ce2014"
       x="1050.657"
       y="1660.4124"
       id="text3"><tspan
         sodipodi:role="line"
         id="tspan3"
         x="1050.657"
         y="1660.4124"
         style="font-size:33.3333px">www.ahonline.mmr.bz</tspan></text>
  </g>
</svg>
